<?xml version="1.0" encoding="UTF-8"?>
<!DOCTYPE svg PUBLIC "-//W3C//DTD SVG 1.1//EN" "http://www.w3.org/Graphics/SVG/1.1/DTD/svg11.dtd">
<!-- Creator: CorelDRAW X8 -->
<svg xmlns="http://www.w3.org/2000/svg" xml:space="preserve" width="215.9mm" height="279.4mm" version="1.1" style="shape-rendering:geometricPrecision; text-rendering:geometricPrecision; image-rendering:optimizeQuality; fill-rule:evenodd; clip-rule:evenodd"
viewBox="0 0 21590 27940"
 xmlns:xlink="http://www.w3.org/1999/xlink">
 <defs>
  <style type="text/css">
   <![CDATA[
    .str0 {stroke:#2B2A29;stroke-width:7.62}
    .fil1 {fill:none;fill-rule:nonzero}
    .fil21 {fill:#FFED00}
    .fil2 {fill:#2B2A29;fill-rule:nonzero}
    .fil0 {fill:#BCC0C4;fill-rule:nonzero}
    .fil22 {fill:#2B2A29}
    .fil20 {fill:url(#id1)}
    .fil17 {fill:url(#id2)}
    .fil7 {fill:url(#id3)}
    .fil16 {fill:url(#id4)}
    .fil10 {fill:url(#id5)}
    .fil15 {fill:url(#id6)}
    .fil14 {fill:url(#id7)}
    .fil18 {fill:url(#id8)}
    .fil9 {fill:url(#id9)}
    .fil19 {fill:url(#id10)}
    .fil4 {fill:url(#id11)}
    .fil13 {fill:url(#id12)}
    .fil12 {fill:url(#id13)}
    .fil3 {fill:url(#id14)}
    .fil6 {fill:url(#id15)}
    .fil8 {fill:url(#id16)}
    .fil11 {fill:url(#id17)}
    .fil5 {fill:url(#id18)}
   ]]>
  </style>
     <clipPath id="id0" style="clip-rule:nonzero">
      <path d="M11884 9894l-1 -1 1 1 0 0z"/>
     </clipPath>
  <radialGradient id="id1" gradientUnits="userSpaceOnUse" gradientTransform="matrix(1.36652 -0.278117 -0.28078 -1.35352 2761 53898)" cx="9180.01" cy="21816.3" r="382.11" fx="9180.01" fy="21816.3">
   <stop offset="0" style="stop-opacity:1; stop-color:#F2EFBD"/>
   <stop offset="0.2" style="stop-opacity:1; stop-color:#F2EFBD"/>
   <stop offset="0.858824" style="stop-opacity:1; stop-color:#FEA307"/>
   <stop offset="0.0666667" style="stop-opacity:1; stop-color:#F8C962"/>
   <stop offset="1" style="stop-opacity:1; stop-color:#FEA307"/>
  </radialGradient>
  <radialGradient id="id2" gradientUnits="userSpaceOnUse" gradientTransform="matrix(1.3753 -0.282016 -0.282604 -1.3726 1886 36748)" xlink:href="#id1" cx="6092.99" cy="14764.3" r="81.05" fx="6092.99" fy="14764.3">
  </radialGradient>
  <radialGradient id="id3" gradientUnits="userSpaceOnUse" gradientTransform="matrix(1.50984 -0.310056 -0.310246 -1.50905 -2581 31649)" xlink:href="#id1" cx="11847.6" cy="11149.8" r="110.51" fx="11847.6" fy="11149.8">
  </radialGradient>
  <radialGradient id="id4" gradientUnits="userSpaceOnUse" gradientTransform="matrix(1.08287 -0.223293 -0.222495 -1.0867 2956 34336)" xlink:href="#id1" cx="6608.01" cy="15747.6" r="99.15" fx="6608.01" fy="15747.6">
  </radialGradient>
  <radialGradient id="id5" gradientUnits="userSpaceOnUse" gradientTransform="matrix(1.1583 -0.23834 -0.217275 -1.27056 1516 44532)" xlink:href="#id1" cx="15155.9" cy="18021.7" r="141.39" fx="15155.9" fy="18021.7">
  </radialGradient>
  <radialGradient id="id6" gradientUnits="userSpaceOnUse" gradientTransform="matrix(1.10435 -0.227727 -0.226925 -1.10836 2976 34836)" xlink:href="#id1" cx="5999.17" cy="15874.8" r="99.15" fx="5999.17" fy="15874.8">
  </radialGradient>
  <radialGradient id="id7" gradientUnits="userSpaceOnUse" gradientTransform="matrix(1.31875 -0.27095 -0.270976 -1.3187 -241 41997)" xlink:href="#id1" cx="14694.2" cy="16395" r="162.52" fx="14694.2" fy="16395">
  </radialGradient>
  <radialGradient id="id8" gradientUnits="userSpaceOnUse" gradientTransform="matrix(1.0591 -0.218756 -0.199427 -1.16175 3251 41620)" xlink:href="#id1" cx="7428.16" cy="18501.2" r="382.87" fx="7428.16" fy="18501.2">
  </radialGradient>
  <radialGradient id="id9" gradientUnits="userSpaceOnUse" gradientTransform="matrix(1.43436 -0.295107 -0.269039 -1.57345 -1076 49536)" xlink:href="#id1" cx="13445.3" cy="17706.8" r="141.42" fx="13445.3" fy="17706.8">
  </radialGradient>
  <radialGradient id="id10" gradientUnits="userSpaceOnUse" gradientTransform="matrix(1.26863 -0.260835 -0.260673 -1.26945 2090 43860)" xlink:href="#id1" cx="9872.02" cy="18191.8" r="370.21" fx="9872.02" fy="18191.8">
  </radialGradient>
  <radialGradient id="id11" gradientUnits="userSpaceOnUse" gradientTransform="matrix(1.14505 -0.235561 -0.214741 -1.25598 1676 37182)" xlink:href="#id1" cx="11125.1" cy="15319.9" r="229.45" fx="11125.1" fy="15319.9">
  </radialGradient>
  <radialGradient id="id12" gradientUnits="userSpaceOnUse" gradientTransform="matrix(1.18529 -0.244384 -0.243541 -1.18935 2953 50944)" xlink:href="#id1" cx="12774.1" cy="21843.3" r="329.75" fx="12774.1" fy="21843.3">
  </radialGradient>
  <radialGradient id="id13" gradientUnits="userSpaceOnUse" gradientTransform="matrix(1.19254 -0.245859 -0.245036 -1.19658 2708 51937)" xlink:href="#id1" cx="14029.3" cy="22074.3" r="329.76" fx="14029.3" fy="22074.3">
  </radialGradient>
  <radialGradient id="id14" gradientUnits="userSpaceOnUse" gradientTransform="matrix(1.23156 -0.253451 -0.231061 -1.35096 696 39173)" xlink:href="#id1" cx="12297.6" cy="15336.8" r="229.45" fx="12297.6" fy="15336.8">
  </radialGradient>
  <radialGradient id="id15" gradientUnits="userSpaceOnUse" gradientTransform="matrix(1.40609 -0.289103 -0.288897 -1.40692 -1235 34571)" xlink:href="#id1" cx="12215.4" cy="12895.9" r="140.21" fx="12215.4" fy="12895.9">
  </radialGradient>
  <radialGradient id="id16" gradientUnits="userSpaceOnUse" gradientTransform="matrix(1.23585 -0.254267 -0.253933 -1.23746 1612 48129)" xlink:href="#id1" cx="14544" cy="19857.8" r="306.3" fx="14544" fy="19857.8">
  </radialGradient>
  <radialGradient id="id17" gradientUnits="userSpaceOnUse" gradientTransform="matrix(1.21414 -0.249797 -0.249478 -1.21574 2051 46807)" xlink:href="#id1" cx="13288.9" cy="19626.8" r="306.27" fx="13288.9" fy="19626.8">
  </radialGradient>
  <radialGradient id="id18" gradientUnits="userSpaceOnUse" gradientTransform="matrix(1.41798 -0.291546 -0.291358 -1.4189 -961 34510)" xlink:href="#id1" cx="11294.7" cy="12905.7" r="140.21" fx="11294.7" fy="12905.7">
  </radialGradient>
 </defs>
 <g id="Layer_x0020_1">
  <metadata id="CorelCorpID_0Corel-Layer"/>
  <g id="_2397689424736">
   <path class="fil0" d="M16715 15987c-31,-47 -149,-304 -32,-471 141,-163 196,-498 48,-690 -54,-132 95,-411 204,-524 167,-44 138,-301 100,-332 -38,-30 111,94 145,223 22,158 -369,391 -111,718 78,42 -50,354 -150,506 -111,169 -181,190 -181,321 0,142 2,214 19,249l-42 0z"/>
   <g>
    <g style="clip-path:url(#id0)">
     <image transform="matrix(1.57705 0.111279 -0.101448 1.43773 11859.2 9859.2)" x="0" y="0" width="35.28" height="35.28" xlink:href="halloween haus_Images\halloween haus_ImgID1.png"/>
    </g>
    <path class="fil1" d="M13727 14056c-3,25 -7,49 -10,74 445,49 391,-25 333,368 -283,285 -937,665 -1352,907 34,-337 68,-675 102,-1012 -106,-9 -211,-17 -317,-25 69,-784 138,-1567 208,-2351 96,7 192,15 288,22 -2513,-4151 -696,-4291 -3431,-456l-15 1 0 20c-80,113 -159,225 -237,338 82,-3 164,-5 245,-6 20,786 39,1571 59,2357 -75,2 -150,4 -224,6 14,449 30,898 45,1346 -453,-323 -1470,-1192 -1470,-1192 -11,-126 -22,-252 -33,-377 129,-10 258,-19 387,-27 -2,-24 -3,-48 -5,-73 -130,8 -259,17 -389,27 -4,-51 -11,-172 -16,-223 -41,3 -83,6 -125,10 5,51 12,171 17,222 -125,10 -251,20 -376,32 2,24 5,48 8,72 125,-11 250,-21 375,-31 12,128 24,255 36,383 0,0 -890,1066 -1328,1486 -42,-270 -84,-540 -126,-811 58,-7 115,-14 173,-22 -437,-495 -903,-1116 -1385,-1599m-76 5c-234,521 -446,1171 -645,1688l-9 2 3 14c-32,83 -63,165 -94,248 49,-9 97,-19 146,-28 165,701 331,1402 496,2104 -80,93 -158,186 -236,280 -11,2 -22,4 -33,7 2,8 4,17 6,25 -188,232 -369,465 -544,701 213,-101 428,-200 646,-296 204,812 407,1625 611,2437 -270,365 -1257,1001 -1339,1105 -81,87 -147,197 -177,249 -10,19 -16,31 -16,31 0,0 37,-22 86,-51l2 2c53,83 25,190 48,282l6 19c5,14 11,28 20,41 10,15 27,25 44,30 21,20 38,42 36,69 -2,17 4,28 27,22l7 -2c134,383 268,767 402,1150l-1 0c22,64 45,128 67,192 490,-142 985,-265 1483,-369l3 10c1581,-329 3199,-467 4813,-412 -1,19 -1,37 -2,55 1195,42 2388,189 3561,443 550,-2111 1100,-4223 1650,-6334 150,32 299,66 448,101 -367,-453 -758,-898 -1172,-1335 78,-194 157,-389 236,-583 -166,-14 -333,-28 -499,-39 -19,96 -39,193 -58,290 -321,-326 -750,-765 -934,-1170 59,-389 -6,-325 440,-263 5,-24 9,-49 13,-73"/>
    <g>
     <path class="fil2" d="M6815 23379c-55,-125 95,406 -143,-586 13,-4 26,-6 40,-9 49,195 98,390 147,586 -15,3 -30,6 -44,9zm-542 -499c44,-10 88,-20 132,-30 291,1073 111,330 163,583 -46,10 -92,20 -138,31 -21,2 90,281 -157,-584zm-198 47c44,-10 87,-21 131,-31 283,1030 122,355 170,581 -46,10 -92,21 -138,32 -59,-146 132,398 -163,-582zm-198 49c43,-11 87,-22 131,-32 266,915 168,462 176,579 -46,11 -98,18 -144,29 -47,-101 125,382 -163,-576zm-198 51c43,-11 87,-23 131,-34 -55,-128 105,251 183,577 -185,44 -263,63 -137,36 -9,30 -118,-466 -177,-579zm-197 53c43,-12 156,-39 156,-39 -42,-106 78,225 164,579 -46,12 -91,24 -137,37 -80,-188 0,0 -183,-577zm-197 55c43,-13 87,-25 130,-37 237,724 209,600 197,574 -46,12 -92,25 -137,38 -82,-187 -103,-391 -190,-575zm1476 255c-47,10 -93,20 -139,30 -24,-21 85,281 -150,-584 44,-10 89,-20 133,-29 163,618 148,570 161,603 16,42 29,56 -5,-20zm-1885 -1321c-1,-21 1294,-528 1516,-562 104,418 209,835 314,1252 -490,102 -976,222 -1457,359 -87,-260 -371,-1031 -373,-1049zm11012 -6307c-322,-327 131,139 -1060,-1177 -269,242 -927,637 -1352,907 34,-337 22,-683 55,-1020 -105,-9 -113,-194 -219,-201 69,-784 87,-1383 156,-2167 97,7 171,-3 267,5 -518,-856 -1190,-2087 -1813,-2941 -10,445 3,28 0,-1 -216,262 -1581,2503 -1611,2503 0,40 -198,285 -236,341 81,-2 163,13 244,11 20,786 47,1394 66,2180 -74,1 -157,182 -231,184 15,449 30,897 45,1346 -453,-323 -1470,-1193 -1470,-1193 -11,-125 -28,-288 -40,-414 130,-10 271,-24 401,-32 -2,-25 -10,-74 -12,-98 -130,8 -266,17 -395,26 -5,-51 -18,-265 -23,-316 -41,3 -76,13 -118,16 5,51 18,284 23,334 -125,10 -257,15 -383,26 3,24 6,67 8,91 126,-11 263,-15 388,-25 12,128 18,280 30,408 0,0 -889,1066 -1328,1486 -42,-270 -84,-541 -127,-811 58,-7 108,-23 166,-31 -438,-495 -880,-1108 -1362,-1590 -145,-200 -662,1501 -736,1693l-9 2 3 14c-32,82 -63,165 -94,248 49,-9 97,-19 146,-28 165,701 331,1402 496,2104 -80,93 -158,186 -236,279 -11,3 -22,5 -33,8l6 25c-188,232 -369,465 -544,701 213,-102 429,-200 646,-296 204,812 407,1624 611,2437 -270,365 -1704,1325 -1786,1428 -54,58 307,-118 342,-92 53,83 157,371 181,463l10938 -6833zm-10938 6833c14,-4 373,1045 409,1148l-602 175c68,213 -4,-29 30,91 2134,-251 6070,-172 10496,-347 550,-2111 1100,-4223 1650,-6334 149,32 299,66 448,101 -367,-453 -1079,-1231 -1493,-1667l-10938 6833z"/>
    </g>
    <path class="fil3" d="M12323 14698c-139,-2 -253,62 -255,145l-23 1074 503 9 23 -1075c2,-82 -109,-150 -248,-153z"/>
    <path class="fil4" d="M11150 14682c-139,-3 -252,61 -254,143l-24 1075 504 9 23 -1075c1,-82 -110,-150 -249,-152z"/>
    <path class="fil5" d="M11314 12508c-126,-2 -230,56 -231,130l-13 612 456 8 13 -611c1,-75 -99,-137 -225,-139z"/>
    <path class="fil6" d="M12234 12498c-126,-2 -229,56 -231,131l-13 611 456 8 13 -611c2,-74 -99,-136 -225,-139z"/>
    <path class="fil7" d="M11874 10825c-160,-3 -292,88 -295,203l-8 378 580 10 8 -378c2,-115 -125,-210 -285,-213z"/>
    <path class="fil8" d="M14768 19004c-277,-51 -529,31 -563,184l-278 1255 1004 185 278 -1255c34,-153 -164,-318 -441,-369z"/>
    <path class="fil9" d="M13549 17313c-128,-24 -245,14 -260,85l-128 579 463 86 128 -580c16,-70 -75,-147 -203,-170z"/>
    <path class="fil10" d="M15259 17628c-128,-24 -244,14 -260,85l-128 579 464 85 128 -579c15,-71 -76,-147 -204,-170z"/>
    <path class="fil11" d="M13513 18773c-277,-51 -530,31 -563,184l-278 1255 1004 185 278 -1255c33,-153 -164,-318 -441,-369z"/>
    <path class="fil12" d="M14270 21153c-277,-51 -532,42 -568,206l-301 1360 1004 185 301 -1360c36,-164 -159,-339 -436,-391z"/>
    <path class="fil13" d="M13015 20922c-278,-51 -532,42 -569,206l-300 1360 1004 184 301 -1359c36,-165 -159,-340 -436,-391z"/>
    <path class="fil14" d="M15162 16481c-53,235 -304,388 -562,340 -258,-47 -425,-277 -373,-512 52,-235 303,-388 562,-340 258,47 425,277 373,512z"/>
    <path class="fil15" d="M5931 15620c-83,18 -141,71 -129,121l102 404 302 -63 -102 -404c-12,-49 -90,-75 -173,-58z"/>
    <path class="fil16" d="M6540 15493c-83,18 -141,72 -129,120l102 405 301 -63 -101 -404c-12,-49 -90,-75 -173,-58z"/>
    <path class="fil17" d="M6033 14562c-106,22 -176,102 -157,178l62 250 384 -80 -62 -250c-20,-76 -121,-120 -227,-98z"/>
    <path class="fil18" d="M7168 17515c-305,63 -514,268 -467,459l387 1572 1104 -226 -387 -1572c-47,-191 -332,-295 -637,-233z"/>
    <path class="fil19" d="M9860 17162c-331,9 -595,175 -589,370l52 1611 1200 -32 -52 -1611c-6,-195 -280,-347 -611,-338z"/>
    <path class="fil20" d="M9052 20790c-537,59 -952,262 -927,453l209 1575 1945 -214 -209 -1575c-26,-191 -481,-298 -1018,-239z"/>
    <rect class="fil21" transform="matrix(3.58623 -3.12995 0.000744069 2.9664 11885.7 9668.59)" width="3.31" height="89.29"/>
    <rect class="fil21" transform="matrix(-3.24443 -3.48301 2.96482 -0.096792 11770 9768.98)" width="3.31" height="89.29"/>
    <polygon class="fil22 str0" points="16511,15827 16845,15911 16656,16668 16322,16584 "/>
   </g>
  </g>
 </g>
</svg>
